<?xml version="1.0" standalone="no"?><!DOCTYPE svg PUBLIC "-//W3C//DTD SVG 1.1//EN" "http://www.w3.org/Graphics/SVG/1.1/DTD/svg11.dtd"><svg t="1538008378068" class="icon" style="" viewBox="0 0 1024 1024" version="1.1" xmlns="http://www.w3.org/2000/svg" p-id="1189" xmlns:xlink="http://www.w3.org/1999/xlink" width="200" height="200"><defs><style type="text/css"></style></defs><path d="M921.598 486.399l0-51.2c0-3.992-0.92-7.885-2.71-11.47l-102.4-204.799c-4.355-8.652-13.21-14.13-22.89-14.13L179.2 204.8c-9.677 0-18.585 5.477-22.887 14.13l-102.4 204.799c-1.79 3.535-2.712 7.477-2.712 11.47l0 51.2c0 41.78 20.122 78.95 51.2 102.35l0 332.849L76.8 921.598c-14.132 0-25.6 11.47-25.6 25.6 0 14.13 11.467 25.6 25.6 25.6l819.198 0c14.13 0 25.6-11.47 25.6-25.6 0-14.13-11.47-25.6-25.6-25.6l-25.6 0L870.398 588.748C901.478 565.349 921.598 528.229 921.598 486.399L921.598 486.399zM588.798 563.199c-42.34 0-76.8-34.46-76.8-76.8l0-25.6 153.6 0 0 25.6C665.598 528.739 631.138 563.199 588.798 563.199zM102.4 486.399l0-25.6 153.6 0 0 25.6c0 42.34-34.457 76.8-76.8 76.8S102.4 528.739 102.4 486.399zM460.799 255.999l0 153.6L314.367 409.599l38.4-153.6L460.799 255.999zM620.028 255.999l38.4 153.6-146.43 0 0-153.6L620.028 255.999zM307.199 460.799l153.6 0 0 25.6c0 42.34-34.457 76.8-76.8 76.8s-76.8-34.46-76.8-76.8L307.199 460.799zM716.798 460.799l153.6 0 0 25.6c0 42.34-34.46 76.8-76.8 76.8s-76.8-34.46-76.8-76.8L716.798 460.799 716.798 460.799zM854.578 409.599l-143.41 0-38.4-153.6 105.01 0L854.578 409.599 854.578 409.599zM195.019 255.999l105.012 0-38.4 153.6L118.22 409.599 195.019 255.999zM153.6 611.838c8.295 1.69 16.845 2.56 25.6 2.56 41.83 0 79.052-20.17 102.4-51.3 23.347 31.13 60.57 51.3 102.4 51.3s79.052-20.17 102.4-51.3c18.482 24.57 45.57 42.34 76.8 48.69l0 309.759L153.6 921.547 153.6 611.788 153.6 611.838zM819.198 921.598 614.398 921.598 614.398 611.838c31.23-6.35 58.32-24.115 76.8-48.69 23.35 31.13 60.57 51.3 102.4 51.3 8.755 0 17.305-0.87 25.6-2.56l0 309.759L819.198 921.598zM716.798 742.398c0 14.13-11.47 25.6-25.6 25.6-14.13 0-25.6-11.47-25.6-25.6 0-14.13 11.47-25.6 25.6-25.6C705.328 716.798 716.798 728.268 716.798 742.398zM230.399 767.998c-6.552 0-13.107-2.51-18.125-7.475-9.985-9.985-9.985-26.215 0-36.195l51.2-51.2c9.985-9.99 26.215-9.99 36.197 0 9.985 9.98 9.985 26.21 0 36.195l-51.2 51.2c-5.017 5.015-11.57 7.475-18.122 7.475L230.399 767.998zM281.599 870.398c-6.552 0-13.107-2.51-18.125-7.475-9.985-9.985-9.985-26.215 0-36.195l153.6-153.6c9.985-9.99 26.215-9.99 36.197 0 9.985 9.98 9.985 26.21 0 36.195l-153.6 153.6c-5.017 5.015-11.57 7.475-18.122 7.475L281.599 870.398zM435.199 870.398c-6.552 0-13.107-2.51-18.125-7.475-9.985-9.985-9.985-26.215 0-36.195l51.2-51.2c9.985-9.99 26.215-9.99 36.197 0 9.985 9.98 9.985 26.21 0 36.195l-51.2 51.2c-5.017 5.015-11.57 7.475-18.122 7.475L435.199 870.398z" fill="#f4ea2a" p-id="1190"></path></svg>