<?xml version="1.0" standalone="no"?><!DOCTYPE svg PUBLIC "-//W3C//DTD SVG 1.1//EN" "http://www.w3.org/Graphics/SVG/1.1/DTD/svg11.dtd"><svg t="1538008355718" class="icon" style="" viewBox="0 0 1024 1024" version="1.1" xmlns="http://www.w3.org/2000/svg" p-id="843" xmlns:xlink="http://www.w3.org/1999/xlink" width="200" height="200"><defs><style type="text/css"></style></defs><path d="M81.01517 118.54634h861.96966c17.178164 0 32.768907 7.030008 44.079283 18.340384 11.310375 11.282029 18.312036 26.901118 18.312036 44.050935v593.468719c0 17.178164-7.001661 32.768907-18.312036 44.079283s-26.901118 18.312036-44.079283 18.312036H634.486546c3.883512 3.203189 7.625291 6.519765 11.225335 10.006422 11.168641 10.743439 21.061676 22.875872 29.395638 36.085483h90.142841v22.564058H258.74964v-22.564058h90.142841c8.333961-13.209611 18.226996-25.342044 29.423985-36.085483 3.600044-3.486657 7.341823-6.803233 11.225334-10.006422H81.01517c-17.178164 0-32.768907-7.001661-44.079283-18.312036-11.282029-11.310375-18.312036-26.901118-18.312036-44.079283V180.937659c0-17.149817 7.030008-32.768907 18.312036-44.050935 11.310375-11.310375 26.901118-18.340383 44.079283-18.340384z m861.96966 22.592404H81.01517c-10.941867 0-20.891596 4.478795-28.120031 11.678884-7.200089 7.228435-11.707231 17.178164-11.707231 28.120031v593.468719c0 10.941867 4.507142 20.891596 11.707231 28.120031 7.228435 7.228435 17.178164 11.707231 28.120031 11.707231h861.96966c10.941867 0 20.891596-4.478795 28.120031-11.707231s11.707231-17.178164 11.707231-28.120031V180.937659c0-10.941867-4.478795-20.891596-11.707231-28.120031-7.228435-7.200089-17.178164-11.678884-28.120031-11.678884zM594.715978 836.797697h-165.431956c-12.897796 7.171742-24.775108 16.015945-35.376813 26.220795-6.406378 6.151257-12.302514 12.784409-17.66006 19.87111h271.534049c-5.385893-7.086701-11.282029-13.719854-17.688407-19.87111-10.601705-10.20485-22.479017-19.049053-35.376813-26.220795z" fill="#1296db" p-id="844"></path></svg>