<?xml version="1.0" standalone="no"?><!DOCTYPE svg PUBLIC "-//W3C//DTD SVG 1.1//EN" "http://www.w3.org/Graphics/SVG/1.1/DTD/svg11.dtd"><svg t="1538008374378" class="icon" style="" viewBox="0 0 1024 1024" version="1.1" xmlns="http://www.w3.org/2000/svg" p-id="1074" xmlns:xlink="http://www.w3.org/1999/xlink" width="200" height="200"><defs><style type="text/css"></style></defs><path d="M938.666667 810.666667H533.333333v85.333333h213.333334c12.8 0 21.333333 8.533333 21.333333 21.333333s-8.533333 21.333333-21.333333 21.333334H277.333333c-12.8 0-21.333333-8.533333-21.333333-21.333334s8.533333-21.333333 21.333333-21.333333h213.333334v-85.333333H85.333333c-36.266667 0-64-27.733333-64-64V149.333333c0-36.266667 27.733333-64 64-64h853.333334c36.266667 0 64 27.733333 64 64v597.333334c0 36.266667-27.733333 64-64 64z m21.333333-661.333334c0-12.8-8.533333-21.333333-21.333333-21.333333H85.333333c-12.8 0-21.333333 8.533333-21.333333 21.333333v512h896V149.333333z m0 554.666667H64v42.666667c0 12.8 8.533333 21.333333 21.333333 21.333333h853.333334c12.8 0 21.333333-8.533333 21.333333-21.333333v-42.666667z" fill="#1afa29" p-id="1075"></path></svg>