<?xml version="1.0" standalone="no"?><!DOCTYPE svg PUBLIC "-//W3C//DTD SVG 1.1//EN" "http://www.w3.org/Graphics/SVG/1.1/DTD/svg11.dtd"><svg t="1538008370138" class="icon" style="" viewBox="0 0 1024 1024" version="1.1" xmlns="http://www.w3.org/2000/svg" p-id="958" xmlns:xlink="http://www.w3.org/1999/xlink" width="200" height="200"><defs><style type="text/css"></style></defs><path d="M304 208v640h432V208H304z m0-64h432c35.3 0 64 28.7 64 64v640c0 35.3-28.7 64-64 64H304c-35.3 0-64-28.7-64-64V208c0-35.3 28.7-64 64-64z m32 96h368v480H336V240z m32 32v416h304V272H368z" fill="#d81e06" p-id="959"></path><path d="M464 752h96c17.7 0 32 14.3 32 32s-14.3 32-32 32h-96c-17.7 0-32-14.3-32-32s14.3-32 32-32z" fill="#d81e06" p-id="960"></path></svg>